<?xml version="1.0" encoding="UTF-8"?>
<svg id="Capa_2" data-name="Capa 2" xmlns="http://www.w3.org/2000/svg" viewBox="0 0 127.4 125.93">
  <defs>
    <style>
      .cls-1 {
        fill: #010101;
      }
    </style>
  </defs>
  <g id="Capa_1-2" data-name="Capa 1">
    <g id="E330_Auto_car_chassis_mechanics" data-name="E330, Auto, car, chassis, mechanics">
      <g>
        <path class="cls-1" d="M123.56,95.23h-12.45c-2.03,0-3.62,1.57-3.62,3.59v2.46l4.98,2.46c.68.45.91,1.12.68,1.79-.23.45-.68.67-1.36.67-.23,0-.45,0-.68-.22l-3.62-1.57v4.71h-31.23c-.68-5.83-5.43-10.53-11.32-11.2v-58.71h5.66v-13.89h-14.26v13.89h5.66v58.93c-5.88.67-10.64,5.38-11.31,11.2h-31v-4.93l-3.62,1.79c-.23,0-.45.22-.68.22-.45,0-1.13-.22-1.36-.67-.45-.67,0-1.57.68-1.79l4.98-2.46v-2.46c0-2.02-1.58-3.59-3.62-3.59H3.62c-2.04,0-3.62,1.57-3.62,3.59v2.46l4.98,2.46c.68.45.9,1.12.68,1.79-.23.45-.68.67-1.36.67-.23,0-.45,0-.68-.22l-3.62-1.79v8.07l4.98,2.46c.68.45.9,1.12.68,1.79-.23.45-.68.67-1.36.67-.23,0-.45,0-.68-.22l-3.62-1.57v6.72c0,2.02,1.58,3.59,3.62,3.59h12.45c2.04,0,3.62-1.57,3.62-3.59v-6.72l-3.62,1.79c-.23,0-.45.22-.68.22-.45,0-1.13-.22-1.36-.67-.45-.67,0-1.57.68-1.79l4.98-2.46v-.45h31.23c.68,6.27,6.11,11.2,12.67,11.2s11.99-4.93,12.67-11.2h31.23v.45l4.98,2.46c.68.45.91,1.12.68,1.79-.23.45-.68.67-1.36.67-.23,0-.45,0-.68-.22l-3.62-1.79v6.72c0,2.02,1.58,3.59,3.62,3.59h12.45c2.04,0,3.62-1.57,3.62-3.59v-6.72l-3.62,1.79c-.23,0-.45.22-.68.22-.45,0-1.13-.22-1.36-.67-.45-.67,0-1.57.68-1.79l4.98-2.46v-8.29l-3.62,1.79c-.23,0-.45.22-.68.22-.45,0-1.13-.22-1.36-.67-.45-.67,0-1.57.68-1.79l4.98-2.46v-2.46c0-2.24-1.58-3.81-3.62-3.81Z"/>
        <path class="cls-1" d="M122.43,8.52l4.98-2.46v-2.46c0-2.02-1.58-3.59-3.62-3.59h-12.45c-2.04,0-3.62,1.57-3.62,3.59v2.46l4.98,2.46c.68.45.91,1.12.68,1.79-.23.45-.68.67-1.36.67-.23,0-.45,0-.68-.22l-3.62-1.79v4.71h-28.51v-5.6h-31.23v5.6h-28.29v-4.71l-3.62,1.79c-.23,0-.45.22-.68.22-.45,0-1.13-.22-1.36-.67-.45-.67,0-1.57.68-1.79l4.98-2.46v-2.46c0-2.02-1.58-3.59-3.62-3.59H3.62C1.58,0,0,1.57,0,3.59v2.46l4.98,2.46c.68.45.9,1.12.68,1.79-.23.45-.68.67-1.36.67-.23,0-.45,0-.68-.22l-3.62-1.79v8.07l4.98,2.46c.68.45.9,1.12.68,1.79-.23.45-.68.67-1.36.67-.23,0-.45,0-.68-.22l-3.62-1.79v6.72c0,2.02,1.58,3.59,3.62,3.59h12.45c2.04,0,3.62-1.57,3.62-3.59v-6.72l-3.62,1.79c-.23,0-.45.22-.68.22-.45,0-1.13-.22-1.36-.67-.45-.67,0-1.57.68-1.79l4.98-2.46v-.45h19.91v14.12h14.26v-5.6h-7.24c-.68,0-1.36-.67-1.36-1.34v-6.95h2.72v5.6h31v-5.6h2.94v6.95c0,.67-.68,1.34-1.36,1.34h-7.02v5.6h14.26v-14.12h19.91v.45l4.98,2.46c.68.45.91,1.12.68,1.79-.23.45-.68.67-1.36.67-.23,0-.45,0-.68-.22l-3.62-1.79v6.72c0,2.02,1.58,3.59,3.62,3.59h12.22c2.04,0,3.62-1.57,3.62-3.59v-6.72l-3.62,2.24c-.23,0-.45.22-.68.22-.45,0-1.13-.22-1.36-.67-.45-.67,0-1.57.68-1.79l4.98-2.46v-8.07l-3.62,1.57c-.23,0-.45.22-.68.22-.45,0-1.13-.22-1.36-.67-.23-.9.23-1.79.9-2.02Z"/>
      </g>
    </g>
  </g>
</svg>